<?xml version="1.0" standalone="no"?>
<!DOCTYPE svg PUBLIC "-//W3C//DTD SVG 20010904//EN"
 "http://www.w3.org/TR/2001/REC-SVG-20010904/DTD/svg10.dtd">
<svg version="1.0" xmlns="http://www.w3.org/2000/svg"
 width="598.000000pt" height="598.000000pt" viewBox="0 0 598.000000 598.000000"
 preserveAspectRatio="xMidYMid meet">
<metadata>
Created by potrace 1.14, written by Peter Selinger 2001-2017
</metadata>
<g transform="translate(0.000000,598.000000) scale(0.100000,-0.100000)"
fill="#000000" stroke="none">
<path d="M770 5948 c0 -28 27 -122 48 -169 11 -24 20 -48 20 -53 0 -5 5 -12
12 -16 6 -4 12 -13 13 -21 2 -8 7 -21 12 -29 22 -34 35 -63 35 -79 0 -14 2
-14 10 -1 8 12 10 11 10 -7 0 -13 4 -23 9 -23 4 0 20 -12 35 -26 14 -15 26
-23 26 -18 0 5 7 -2 16 -14 8 -12 12 -27 8 -34 -4 -7 -3 -8 4 -4 13 8 53 -24
46 -36 -3 -5 -2 -8 3 -7 20 3 33 -2 31 -13 -2 -7 5 -12 14 -10 9 1 22 -7 28
-18 6 -11 19 -20 30 -20 10 0 20 -3 22 -7 2 -5 18 -16 36 -25 20 -11 30 -13
26 -5 -4 6 2 4 13 -5 11 -10 30 -18 42 -18 13 0 19 -4 16 -10 -4 -7 2 -9 17
-6 13 2 50 -5 83 -16 58 -19 91 -20 1065 -19 707 1 1024 -2 1070 -10 81 -14
233 -60 241 -72 4 -6 14 -7 22 -4 9 3 21 -1 28 -9 6 -8 14 -12 16 -10 6 6 64
-14 82 -28 7 -5 20 -11 29 -12 8 -2 18 -6 21 -11 3 -4 18 -14 34 -22 15 -8 27
-18 27 -23 0 -5 5 -6 10 -3 6 3 13 -1 16 -9 3 -9 12 -16 20 -16 8 0 14 -5 14
-11 0 -5 4 -8 9 -5 5 3 23 -10 40 -29 17 -19 35 -35 41 -35 5 0 10 -7 10 -16
0 -8 4 -12 10 -9 6 3 10 -1 10 -10 0 -10 5 -13 12 -9 8 5 9 2 5 -10 -4 -10 -3
-15 3 -11 6 3 10 1 10 -4 0 -6 7 -11 15 -11 8 0 15 -7 15 -16 0 -9 5 -12 12
-8 8 5 9 2 4 -12 -4 -10 -4 -15 0 -11 10 10 35 -13 27 -26 -3 -5 -2 -7 4 -4
10 6 106 -82 110 -102 2 -6 12 -21 23 -33 10 -13 19 -26 19 -31 1 -4 10 -17
21 -29 11 -12 20 -27 20 -34 0 -6 7 -17 15 -24 8 -7 12 -17 9 -22 -3 -5 2 -16
12 -23 11 -8 16 -15 12 -15 -3 0 4 -21 17 -46 13 -26 21 -53 18 -60 -3 -8 0
-14 6 -14 6 0 11 -10 11 -22 0 -13 7 -32 15 -42 8 -10 12 -23 9 -28 -3 -5 -1
-15 5 -22 6 -7 12 -33 13 -57 2 -24 8 -47 13 -51 6 -5 10 -100 9 -255 -1 -203
-5 -258 -19 -303 -9 -30 -18 -64 -19 -75 -2 -11 -8 -33 -14 -48 -7 -16 -12
-32 -12 -36 0 -4 -7 -21 -15 -38 -8 -16 -16 -38 -18 -49 -4 -27 -45 -105 -70
-131 -11 -13 -17 -23 -12 -23 4 0 0 -9 -10 -20 -10 -11 -15 -20 -12 -20 8 0
-20 -36 -45 -59 -10 -8 -18 -20 -18 -25 0 -14 -63 -76 -78 -76 -7 0 -11 -4 -7
-9 3 -5 -4 -13 -16 -16 -11 -4 -18 -9 -16 -12 7 -7 -31 -43 -45 -43 -6 0 -9
-2 -6 -5 6 -7 -146 -167 -159 -167 -4 1 -15 -5 -23 -12 -16 -14 -41 -24 -51
-22 -4 0 -15 -6 -25 -15 -11 -8 -39 -24 -64 -34 -25 -11 -48 -23 -51 -28 -3
-5 -12 -10 -20 -11 -8 -2 -23 -6 -34 -10 -11 -5 -37 -14 -58 -22 -20 -8 -37
-11 -37 -8 0 4 -6 2 -12 -4 -15 -12 -139 -44 -145 -38 -3 2 -21 -1 -41 -8 -28
-10 -127 -12 -399 -10 -209 1 -363 -2 -363 -7 0 -5 -7 -9 -15 -9 -33 0 -123
-52 -172 -99 -29 -28 -50 -51 -46 -51 3 0 -1 -8 -10 -17 -8 -10 -23 -40 -32
-68 -9 -27 -19 -57 -22 -65 -3 -8 -6 -498 -7 -1088 l-1 -1072 37 4 c20 3 45 9
55 14 10 6 21 11 25 11 49 8 71 16 75 27 3 8 9 11 14 8 11 -7 114 39 135 61 9
8 20 13 25 10 5 -4 9 -2 9 4 0 6 19 19 43 30 23 11 38 20 34 21 -5 0 10 17 32
38 23 21 41 44 41 51 0 7 4 9 10 6 5 -3 15 5 22 19 6 14 15 26 20 26 5 0 6 5
3 10 -3 6 -1 10 5 10 6 0 8 5 5 10 -3 6 -2 10 3 10 10 0 102 183 102 203 0 7
5 18 12 25 7 7 8 12 2 12 -5 0 -2 5 6 10 10 7 11 10 2 10 -9 0 -9 6 3 23 8 13
13 26 9 29 -3 3 0 26 7 49 8 31 12 175 12 492 0 253 4 447 9 447 5 0 6 5 3 10
-3 6 1 10 9 10 8 0 18 5 22 12 5 7 3 8 -7 3 -8 -5 -6 1 5 13 10 12 22 19 27
17 4 -3 10 -1 13 4 4 5 59 9 124 9 72 0 147 6 196 16 44 9 103 19 132 21 29 2
66 11 82 19 16 8 46 16 66 18 20 1 36 6 36 12 0 5 3 7 6 3 7 -7 86 22 95 36 3
5 10 8 15 8 19 -2 194 73 194 82 0 6 3 8 6 4 4 -3 23 2 43 12 20 11 38 18 41
17 3 0 16 9 29 21 13 12 40 30 60 39 19 9 42 23 49 31 7 7 20 13 28 13 8 0 14
4 14 8 0 4 12 15 28 24 15 10 40 28 56 43 16 14 33 25 38 25 5 0 36 26 68 59
33 32 61 57 62 55 2 -1 12 9 22 24 10 15 33 38 51 52 18 14 32 26 30 28 -1 1
24 29 56 62 33 32 59 65 59 72 0 7 9 19 20 26 12 7 18 17 15 22 -3 6 1 10 9
10 9 0 16 6 16 13 0 8 9 24 20 37 11 13 20 29 20 35 0 7 7 18 15 25 8 7 12 16
9 21 -3 5 -1 9 4 9 5 0 29 39 53 87 24 49 47 90 52 91 4 2 7 9 7 15 0 7 14 39
30 72 16 33 30 68 30 78 0 9 4 17 10 17 5 0 9 3 8 8 -1 4 5 21 12 37 7 17 14
35 16 40 1 6 9 30 17 55 25 78 40 140 34 146 -3 3 -1 18 5 33 6 14 12 41 15
60 2 19 7 41 12 50 4 9 6 30 5 46 -2 17 1 45 8 64 13 40 17 361 5 378 -5 6
-10 38 -12 70 -2 32 -6 66 -10 75 -4 10 -8 36 -8 58 -1 22 -5 40 -9 40 -5 0
-8 8 -8 19 0 10 -6 31 -14 46 -8 16 -13 41 -11 56 2 16 -1 31 -6 34 -5 4 -9
19 -9 36 0 16 -4 29 -10 29 -5 0 -10 9 -10 20 0 11 -9 36 -20 56 -12 20 -19
39 -16 41 3 3 -5 24 -17 47 -13 22 -29 60 -35 84 -7 23 -17 42 -22 42 -6 0
-10 11 -10 25 0 14 -4 25 -9 25 -8 0 -53 64 -56 80 -5 26 -18 50 -26 50 -6 0
-8 4 -5 9 3 5 -1 12 -10 15 -9 4 -14 13 -10 21 3 9 0 15 -9 15 -8 0 -15 4 -15
10 0 5 -15 24 -32 41 -18 17 -33 34 -33 37 -1 18 -38 81 -50 86 -8 3 -21 21
-29 41 -9 20 -20 34 -26 30 -10 -6 -15 9 -10 30 1 5 -1 7 -5 3 -4 -3 -28 15
-55 42 -27 27 -52 45 -56 42 -4 -4 -4 1 -1 11 4 11 3 16 -4 12 -6 -4 -13 3
-16 15 -4 15 -8 18 -13 10 -5 -9 -10 -6 -15 9 -3 11 -13 21 -22 21 -19 0 -74
45 -66 54 4 3 -4 6 -16 6 -12 0 -24 7 -27 15 -4 8 -9 13 -13 10 -4 -2 -14 5
-21 16 -8 10 -20 19 -28 19 -7 0 -10 5 -6 12 5 7 3 8 -6 3 -8 -5 -17 -2 -24 7
-11 14 -45 32 -57 30 -4 -1 -15 8 -24 18 -10 11 -24 20 -30 20 -7 0 -18 7 -25
15 -7 8 -16 13 -20 10 -5 -3 -16 2 -24 11 -9 8 -16 12 -16 8 0 -3 -7 0 -16 7
-9 7 -23 14 -32 15 -8 2 -19 9 -23 16 -5 7 -9 9 -9 4 0 -5 -9 -1 -20 9 -11 10
-20 15 -20 10 0 -4 -6 -2 -13 4 -8 6 -23 12 -34 14 -12 2 -27 8 -35 14 -7 5
-34 16 -60 24 -27 7 -48 16 -48 19 0 3 -10 6 -22 7 -11 1 -24 6 -27 10 -3 4
-24 9 -46 10 -22 2 -41 7 -43 13 -2 5 -15 10 -28 10 -13 0 -24 5 -24 11 0 5
-4 8 -9 5 -11 -7 -72 4 -67 13 2 3 -10 7 -27 7 -18 1 -52 5 -76 8 -25 4 -681
8 -1458 9 -1331 2 -1413 1 -1413 -15z"/>
<path d="M2637 4218 c-7 -4 -30 -8 -53 -8 -22 0 -44 -3 -48 -7 -7 -7 -31 -12
-81 -16 -17 -2 -35 -5 -40 -8 -10 -5 -81 -28 -223 -70 -41 -12 -76 -28 -79
-36 -3 -7 -9 -10 -14 -7 -6 3 -15 2 -22 -3 -7 -5 -30 -15 -52 -22 -22 -8 -52
-22 -67 -33 -16 -11 -28 -17 -28 -13 0 3 -11 -2 -25 -11 -14 -9 -25 -14 -25
-11 0 3 -12 -5 -26 -18 -15 -14 -30 -22 -34 -20 -4 3 -10 -2 -14 -10 -3 -8
-11 -15 -18 -15 -6 0 -21 -9 -32 -19 -31 -29 -116 -88 -153 -107 -18 -9 -33
-20 -33 -25 0 -5 -5 -9 -10 -9 -15 0 -157 -98 -173 -118 -6 -10 -19 -18 -27
-20 -19 -5 -264 -251 -257 -259 4 -3 -4 -14 -17 -24 -27 -21 -162 -226 -158
-240 1 -5 -2 -9 -7 -9 -4 0 -22 -28 -39 -62 -71 -142 -104 -235 -118 -333 -9
-64 -9 -1849 1 -1895 4 -19 7 -52 6 -72 0 -21 5 -38 10 -38 5 0 9 -6 7 -13 -3
-12 15 -65 33 -99 5 -10 9 -25 9 -33 0 -8 5 -15 10 -15 6 0 10 -9 10 -20 0
-11 5 -20 10 -20 6 0 10 -6 10 -13 0 -7 9 -23 20 -35 11 -12 20 -27 20 -34 0
-8 9 -20 20 -28 11 -8 20 -20 20 -28 0 -32 241 -232 280 -232 5 0 10 -4 10 -8
0 -5 19 -15 43 -22 23 -7 51 -16 62 -20 45 -18 61 -23 84 -27 14 -2 32 -8 42
-14 12 -6 20 -5 25 3 4 6 7 535 7 1175 0 704 3 1163 9 1163 5 0 7 4 3 9 -3 5
-1 12 4 16 6 3 9 23 8 45 -2 22 1 41 6 43 5 1 13 20 17 42 5 22 12 54 16 70 3
17 11 35 18 40 12 11 16 23 24 68 2 15 8 27 13 27 5 0 9 6 9 14 0 18 22 59 43
80 9 10 15 22 12 27 -4 5 -1 9 5 9 6 0 8 5 5 10 -3 6 -2 10 3 10 5 0 12 9 15
21 3 12 10 18 17 14 6 -3 9 -3 8 2 -5 13 28 53 37 45 5 -4 5 -2 1 5 -8 14 23
55 36 47 4 -3 8 -1 8 4 0 14 36 52 49 52 6 0 10 3 10 8 -4 22 3 31 19 25 9 -3
14 -3 10 1 -7 9 47 66 62 66 6 0 9 4 7 8 -3 12 47 59 71 67 12 3 20 10 17 15
-3 5 5 12 19 16 14 3 31 12 37 20 12 15 112 64 129 64 6 0 10 4 10 8 0 4 15
14 33 21 98 39 165 63 192 67 40 7 65 12 95 19 14 3 41 7 60 8 19 1 41 6 49
11 8 5 157 9 335 8 317 -1 322 -1 404 24 45 14 82 30 82 34 0 5 10 12 22 16
12 3 36 19 52 35 17 16 35 29 39 29 5 0 5 5 2 10 -3 6 -2 10 4 10 11 0 41 56
41 77 0 7 5 13 10 13 6 0 10 8 10 18 0 10 3 22 7 25 34 35 2 217 -48 270 -10
11 -16 23 -14 27 3 5 -2 10 -10 14 -8 3 -15 13 -15 21 0 9 -4 14 -9 10 -5 -3
-17 5 -25 17 -9 12 -16 19 -16 15 0 -4 -26 6 -57 22 -32 16 -67 33 -78 37 -26
10 -773 11 -788 2z"/>
</g>
</svg>
