<svg xmlns="http://www.w3.org/2000/svg" version="1.1" xmlns:xlink="http://www.w3.org/1999/xlink" xmlns:svgjs="http://svgjs.dev/svgjs" width="728" height="728"><svg width="728" height="728" viewBox="0 0 728 728" fill="none" xmlns="http://www.w3.org/2000/svg"><g clip-path="url(#a)" fill-rule="evenodd" clip-rule="evenodd" fill="#A99D8A"><path d="M341.76 356.28c0-28.33-23.23-51.3-51.88-51.3S238 327.95 238 356.28s23.23 51.3 51.88 51.3 51.88-22.97 51.88-51.3m155.62 0c0-28.33-23.23-51.3-51.88-51.3s-51.88 22.97-51.88 51.3 23.23 51.3 51.88 51.3 51.88-22.97 51.88-51.3"></path><path d="M363.76 0C162.86 0 0 162.86 0 363.76c0 123.99 62.04 233.49 156.76 299.16-.51-38.49-.51-67.8-.51-74.91V356.23c0-113.3 93.13-205.14 207.5-205.14s207.5 91.81 207.5 205.24v231.19c0 7.26 0 36.84-.53 75.43 94.74-65.67 156.79-175.17 156.79-299.18C727.51 162.86 564.65 0 363.76 0"></path></g><defs><clipPath id="SvgjsClipPath1024"><path fill="#fff" d="M0 0h727.51v662.93H0z"></path></clipPath></defs></svg><style>@media (prefers-color-scheme: light) { :root { filter: none; } }
@media (prefers-color-scheme: dark) { :root { filter: none; } }
</style></svg>