<svg width="732" height="732" viewBox="0 0 732 732" fill="none" xmlns="http://www.w3.org/2000/svg">
<g clip-path="url(#clip0_42_128)">
<path d="M239.4 358.14C239.4 386.62 262.77 409.71 291.59 409.71C320.41 409.71 343.78 386.62 343.78 358.14C343.78 349.17 341.46 340.75 337.39 333.4H245.8C241.73 340.75 239.41 349.17 239.41 358.14H239.4Z" fill="#FF6E30"/>
<path d="M448.13 306.57C428.38 306.57 411.2 317.41 402.34 333.4H493.93C485.07 317.41 467.88 306.57 448.14 306.57H448.13Z" fill="#FF6E30"/>
<path d="M291.59 306.57C271.84 306.57 254.66 317.41 245.8 333.4H337.39C328.53 317.41 311.34 306.57 291.6 306.57H291.59Z" fill="#FF6E30"/>
<path d="M395.94 358.14C395.94 386.62 419.31 409.71 448.13 409.71C476.95 409.71 500.32 386.62 500.32 358.14C500.32 349.17 498 340.75 493.93 333.4H402.34C398.27 340.75 395.95 349.17 395.95 358.14H395.94Z" fill="#FF6E30"/>
<path d="M574.62 590.59C574.62 597.89 574.62 627.62 574.09 666.4H574.11C616.29 637.18 652.02 599.33 678.75 555.4H574.63V590.59H574.62Z" fill="#009EDD"/>
<path d="M574.09 666.41C574.09 666.41 574.1 666.41 574.11 666.4H574.09C574.09 666.4 574.09 666.4 574.09 666.41Z" fill="#A99D8A"/>
<path d="M157.68 666.38C157.17 627.69 157.17 598.23 157.17 591.08V555.4H53.07C79.8 599.32 115.52 637.17 157.69 666.38H157.68Z" fill="#009EDD"/>
<path d="M8.51001 444.4C17.26 484.22 32.5 521.61 53.07 555.4H157.17V444.4H8.51001Z" fill="#953D94"/>
<path d="M378.69 0.22998H353.13C255.02 3.59998 166.72 45.56 102.95 111.4H628.86C565.09 45.56 476.79 3.58998 378.69 0.22998Z" fill="#60BB44"/>
<path d="M365.89 151.88C428.44 151.88 484.68 179.17 522.97 222.4H702.64C684.94 180.9 659.78 143.34 628.85 111.4H102.95C72.02 143.34 46.86 180.9 29.16 222.4H208.82C247.12 179.18 303.35 151.88 365.9 151.88H365.89Z" fill="#FCB827"/>
<path d="M574.62 444.4V555.4H678.74C699.31 521.61 714.55 484.22 723.29 444.4H574.62Z" fill="#953D94"/>
<path d="M573.11 333.4C574.1 341.53 574.62 349.8 574.62 358.19V444.4H723.29C728.86 419.04 731.8 392.7 731.8 365.67C731.8 354.8 731.32 344.03 730.39 333.4H573.11Z" fill="#E03A3C"/>
<path d="M157.17 444.4V358.09C157.17 349.73 157.69 341.5 158.67 333.4H1.41C0.48 344.03 0 354.79 0 365.66C0 392.69 2.94 419.04 8.51 444.4H157.17Z" fill="#E03A3C"/>
<path d="M29.15 222.4C14.4 256.99 4.82002 294.31 1.40002 333.4H158.66C163.77 291.15 181.84 252.83 208.8 222.4H29.15Z" fill="#F6821F"/>
<path d="M573.11 333.4H730.39C726.97 294.31 717.4 256.99 702.64 222.4H522.97C549.92 252.82 567.98 291.14 573.11 333.4Z" fill="#F6821F"/>
<path d="M378.69 0.23C374.45 0.08 370.19 0 365.91 0C361.63 0 357.37 0.08 353.13 0.23H378.69Z" fill="#A99D8A"/>
<circle cx="291.5" cy="357.5" r="52.5" fill="#FF6E30"/>
<circle cx="448.5" cy="357.5" r="52.5" fill="#FF6E30"/>
</g>
<defs>
<clipPath id="clip0_42_128">
<rect width="731.8" height="731.8" fill="white"/>
</clipPath>
</defs>
</svg>
