<?xml version="1.0" encoding="UTF-8"?>
<svg id="Layer_1" data-name="Layer 1" xmlns="http://www.w3.org/2000/svg" viewBox="0 0 42 20">
  <defs>
    <style>
      .cls-1 {
        fill: #262626;
      }

      .cls-2, .cls-3 {
        fill: gray;
      }

      .cls-4, .cls-5 {
        fill: #ddd;
      }

      .cls-5 {
        fill-rule: evenodd;
      }

      .cls-6, .cls-7, .cls-8 {
        fill: #fff;
      }

      .cls-9 {
        fill: #eee;
        opacity: .75;
      }

      .cls-9, .cls-3, .cls-7, .cls-8 {
        isolation: isolate;
      }

      .cls-3, .cls-8 {
        opacity: .5;
      }

      .cls-7 {
        opacity: .6;
      }
    </style>
  </defs>
  <path class="cls-5" d="M6,1H2v1h-1v16h1v1h4V1Z"/>
  <rect class="cls-1" y="2" width="1" height="16"/>
  <rect class="cls-1" x="1" y="1" width="1" height="1"/>
  <rect class="cls-7" x="3" y="1" width="3" height="1"/>
  <rect class="cls-7" x="3" y="2" width="1" height="1"/>
  <rect class="cls-1" x="2" width="34.36" height="1"/>
  <rect class="cls-1" x="1" y="18" width="1" height="1"/>
  <rect class="cls-1" x="2" y="19" width="34.36" height="1"/>
  <rect class="cls-6" x="1" y="2" width="1" height="16"/>
  <rect class="cls-7" x="2" y="1" width="1" height="18"/>
  <rect class="cls-3" x="2" y="18" width="34" height="1"/>
  <path class="cls-5" d="M36,19h4v-1h1V2h-1v-1h-4v18Z"/>
  <rect class="cls-3" x="38" y="17" width="1" height="1"/>
  <rect class="cls-3" x="36" y="18" width="3" height="1"/>
  <rect class="cls-1" x="41" y="2" width="1" height="16"/>
  <rect class="cls-1" x="40" y="18" width="1" height="1"/>
  <rect class="cls-1" x="36" y="19" width="4" height="1"/>
  <rect class="cls-1" x="40" y="1" width="1" height="1"/>
  <rect class="cls-1" x="36" width="4" height="1"/>
  <rect class="cls-2" x="40" y="2" width="1" height="16"/>
  <rect class="cls-3" x="39" y="1" width="1" height="18"/>
  <rect class="cls-8" x="36" y="1" width="4" height="1"/>
  <rect class="cls-4" x="6" y="2" width="30" height="16"/>
  <rect class="cls-6" x="6" y="1" width="30" height="1"/>
  <rect class="cls-9" x="6" y="1" width="30" height="1"/>
</svg>