<svg width="9" height="12" viewBox="0 0 9 12" fill="none" xmlns="http://www.w3.org/2000/svg">
<rect x="2.69995" y="2.25" width="7.5" height="0.9" transform="rotate(90 2.69995 2.25)" fill="#BFBFFF"/>
<rect x="3.6001" y="3" width="6" height="0.9" transform="rotate(90 3.6001 3)" fill="#A6A6FF"/>
<rect x="4.5" y="3.75" width="4.5" height="0.9" transform="rotate(90 4.5 3.75)" fill="#9999FF"/>
<rect x="5.3999" y="4.5" width="3" height="0.9" transform="rotate(90 5.3999 4.5)" fill="#8686E5"/>
<rect x="6.30005" y="5.25" width="1.5" height="0.9" transform="rotate(90 6.30005 5.25)" fill="#6060B2"/>
<rect x="7.19995" y="5.25" width="1.5" height="0.9" transform="rotate(90 7.19995 5.25)" fill="#262626"/>
<rect x="6.30005" y="4.5" width="0.75" height="0.9" transform="rotate(90 6.30005 4.5)" fill="#262626"/>
<rect x="6.30005" y="6.75" width="0.75" height="0.9" transform="rotate(90 6.30005 6.75)" fill="#262626"/>
<rect x="5.3999" y="7.5" width="0.75" height="0.9" transform="rotate(90 5.3999 7.5)" fill="#262626"/>
<rect x="5.3999" y="3.75" width="0.75" height="0.9" transform="rotate(90 5.3999 3.75)" fill="#262626"/>
<rect x="4.5" y="3" width="0.75" height="0.9" transform="rotate(90 4.5 3)" fill="#262626"/>
<rect x="4.5" y="8.25" width="0.75" height="0.9" transform="rotate(90 4.5 8.25)" fill="#262626"/>
<rect x="3.6001" y="9" width="0.75" height="0.9" transform="rotate(90 3.6001 9)" fill="#262626"/>
<rect x="3.6001" y="2.25" width="0.75" height="0.9" transform="rotate(90 3.6001 2.25)" fill="#262626"/>
<rect x="2.69995" y="1.5" width="0.75" height="0.9" transform="rotate(90 2.69995 1.5)" fill="#262626"/>
<rect x="2.69995" y="9.75" width="0.75" height="0.9" transform="rotate(90 2.69995 9.75)" fill="#262626"/>
<rect opacity="0.7" x="2.69995" y="10.5" width="0.75" height="1.8" transform="rotate(90 2.69995 10.5)" fill="#262626"/>
<rect opacity="0.7" x="2.69995" y="0.75" width="0.75" height="1.8" transform="rotate(90 2.69995 0.75)" fill="#262626"/>
<rect x="1.80005" y="1.5" width="9" height="0.9" transform="rotate(90 1.80005 1.5)" fill="#262626"/>
<rect opacity="0.7" x="3.6001" y="1.5" width="0.75" height="0.9" transform="rotate(90 3.6001 1.5)" fill="#262626"/>
<rect opacity="0.4" x="0.899902" y="1.5" width="9" height="0.9" transform="rotate(90 0.899902 1.5)" fill="#262626"/>
<rect opacity="0.2" x="9" y="5.25" width="1.5" height="0.9" transform="rotate(90 9 5.25)" fill="#262626"/>
<rect opacity="0.2" x="8.1001" y="4.5" width="0.75" height="0.9" transform="rotate(90 8.1001 4.5)" fill="#262626"/>
<rect opacity="0.2" x="8.1001" y="6.75" width="0.75" height="0.9" transform="rotate(90 8.1001 6.75)" fill="#262626"/>
<rect opacity="0.2" x="7.19995" y="7.5" width="0.75" height="0.9" transform="rotate(90 7.19995 7.5)" fill="#262626"/>
<rect opacity="0.2" x="7.19995" y="3.75" width="0.75" height="0.9" transform="rotate(90 7.19995 3.75)" fill="#262626"/>
<rect opacity="0.2" x="6.30005" y="3" width="0.75" height="0.9" transform="rotate(90 6.30005 3)" fill="#262626"/>
<rect opacity="0.2" x="6.30005" y="8.25" width="0.75" height="0.9" transform="rotate(90 6.30005 8.25)" fill="#262626"/>
<rect opacity="0.2" x="5.3999" y="9" width="0.75" height="0.9" transform="rotate(90 5.3999 9)" fill="#262626"/>
<rect opacity="0.2" x="5.3999" y="2.25" width="0.75" height="0.9" transform="rotate(90 5.3999 2.25)" fill="#262626"/>
<rect opacity="0.2" x="4.5" y="1.5" width="0.75" height="0.9" transform="rotate(90 4.5 1.5)" fill="#262626"/>
<rect opacity="0.2" x="4.5" y="9.75" width="0.75" height="0.9" transform="rotate(90 4.5 9.75)" fill="#262626"/>
<rect opacity="0.2" x="3.6001" y="10.5" width="0.75" height="0.9" transform="rotate(90 3.6001 10.5)" fill="#262626"/>
<rect opacity="0.2" x="0.899902" y="10.5" width="0.75" height="0.9" transform="rotate(90 0.899902 10.5)" fill="#262626"/>
<rect opacity="0.05" x="0.899902" y="11.25" width="0.75" height="0.9" transform="rotate(90 0.899902 11.25)" fill="#262626"/>
<rect opacity="0.05" x="0.899902" width="0.75" height="0.9" transform="rotate(90 0.899902 0)" fill="#262626"/>
<rect opacity="0.05" x="3.6001" y="11.25" width="0.75" height="0.9" transform="rotate(90 3.6001 11.25)" fill="#262626"/>
<rect opacity="0.05" x="3.6001" width="0.75" height="0.9" transform="rotate(90 3.6001 0)" fill="#262626"/>
<rect opacity="0.05" x="5.3999" y="1.5" width="0.75" height="0.9" transform="rotate(90 5.3999 1.5)" fill="#262626"/>
<rect opacity="0.05" x="7.19995" y="3" width="0.75" height="0.9" transform="rotate(90 7.19995 3)" fill="#262626"/>
<rect opacity="0.05" x="9" y="4.5" width="0.75" height="0.9" transform="rotate(90 9 4.5)" fill="#262626"/>
<rect opacity="0.05" x="9" y="6.75" width="0.75" height="0.9" transform="rotate(90 9 6.75)" fill="#262626"/>
<rect opacity="0.05" x="7.19995" y="8.25" width="0.75" height="0.9" transform="rotate(90 7.19995 8.25)" fill="#262626"/>
<rect opacity="0.05" x="5.3999" y="9.75" width="0.75" height="0.9" transform="rotate(90 5.3999 9.75)" fill="#262626"/>
<rect opacity="0.2" x="3.6001" y="0.75" width="0.75" height="0.9" transform="rotate(90 3.6001 0.75)" fill="#262626"/>
<rect opacity="0.2" x="0.899902" y="0.75" width="0.75" height="0.9" transform="rotate(90 0.899902 0.75)" fill="#262626"/>
<rect opacity="0.2" x="2.69995" width="0.75" height="1.8" transform="rotate(90 2.69995 0)" fill="#262626"/>
<rect opacity="0.2" x="2.69995" y="11.25" width="0.75" height="1.8" transform="rotate(90 2.69995 11.25)" fill="#262626"/>
<rect opacity="0.7" x="4.5" y="2.25" width="0.75" height="0.9" transform="rotate(90 4.5 2.25)" fill="#262626"/>
<rect opacity="0.7" x="5.3999" y="3" width="0.75" height="0.9" transform="rotate(90 5.3999 3)" fill="#262626"/>
<rect opacity="0.7" x="6.30005" y="3.75" width="0.75" height="0.9" transform="rotate(90 6.30005 3.75)" fill="#262626"/>
<rect opacity="0.7" x="7.19995" y="4.5" width="0.75" height="0.9" transform="rotate(90 7.19995 4.5)" fill="#262626"/>
<rect opacity="0.7" x="7.19995" y="6.75" width="0.75" height="0.9" transform="rotate(90 7.19995 6.75)" fill="#262626"/>
<rect opacity="0.7" x="6.30005" y="7.5" width="0.75" height="0.9" transform="rotate(90 6.30005 7.5)" fill="#262626"/>
<rect opacity="0.7" x="5.3999" y="8.25" width="0.75" height="0.9" transform="rotate(90 5.3999 8.25)" fill="#262626"/>
<rect opacity="0.7" x="4.5" y="9" width="0.75" height="0.9" transform="rotate(90 4.5 9)" fill="#262626"/>
<rect opacity="0.7" x="3.6001" y="9.75" width="0.75" height="0.9" transform="rotate(90 3.6001 9.75)" fill="#262626"/>
<rect opacity="0.7" x="8.1001" y="5.25" width="1.5" height="0.9" transform="rotate(90 8.1001 5.25)" fill="#262626"/>
</svg>
