<svg width="30" height="13" viewBox="0 0 30 13" fill="none" xmlns="http://www.w3.org/2000/svg">
<rect x="1.5" y="1.5" width="10" height="10" fill="url(#paint0_linear_0_1)" stroke="#262626"/>
<path fill-rule="evenodd" clip-rule="evenodd" d="M2 11L3 11L3 3L11 3L11 2L3 2L2 2L2 3L2 11Z" fill="white"/>
<path fill-rule="evenodd" clip-rule="evenodd" d="M11 2H10V10H2V11H10H11V10V2Z" fill="#808080"/>
<path fill-rule="evenodd" clip-rule="evenodd" d="M13 9.53674e-07H12V12H0V13H12H13V9.53674e-07Z" fill="white"/>
<path fill-rule="evenodd" clip-rule="evenodd" d="M0 12L1 12L1 1L12 1L12 9.53674e-07L1 -7.97623e-09L1.04907e-06 -9.5399e-08L0 12Z" fill="#808080"/>
<rect x="1.5" y="1.5" width="6" height="6" stroke="#262626"/>
<rect x="18.5" y="1.5" width="10" height="10" fill="url(#paint1_linear_0_1)" stroke="#262626"/>
<path fill-rule="evenodd" clip-rule="evenodd" d="M19 11L20 11L20 3L28 3L28 2L20 2L19 2L19 3L19 11Z" fill="white"/>
<path fill-rule="evenodd" clip-rule="evenodd" d="M28 2H27V10H19V11H27H28V10V2Z" fill="#808080"/>
<rect x="18.5" y="5.5" width="10" height="2" stroke="#262626"/>
<path fill-rule="evenodd" clip-rule="evenodd" d="M30 9.53674e-07H29V12H17V13H29H30V9.53674e-07Z" fill="white"/>
<path fill-rule="evenodd" clip-rule="evenodd" d="M17 12L18 12L18 1L29 1L29 9.53674e-07L18 -7.97623e-09L17 -9.5399e-08L17 12Z" fill="#808080"/>
<defs>
<linearGradient id="paint0_linear_0_1" x1="2" y1="2" x2="11" y2="11" gradientUnits="userSpaceOnUse">
<stop stop-color="#9A9A9A"/>
<stop offset="1" stop-color="#F1F1F1"/>
</linearGradient>
<linearGradient id="paint1_linear_0_1" x1="19" y1="2" x2="28" y2="11" gradientUnits="userSpaceOnUse">
<stop stop-color="#9A9A9A"/>
<stop offset="1" stop-color="#F1F1F1"/>
</linearGradient>
</defs>
</svg>
