<svg xmlns="http://www.w3.org/2000/svg" style="background-color:#fff" xml:space="preserve" width="1000" height="1000" viewBox="-20 -20 330 330"><path d="M207.78 73.79v4.28c12.39 1.02 22.26 10.9 23.29 23.3h4.28c-1.05-14.76-12.82-26.54-27.57-27.58m0-6.4v4.27c15.92 1.05 28.65 13.78 29.7 29.7h4.27c-1.07-18.28-15.7-32.91-33.97-33.97m40.36 33.97c-1.07-21.81-18.56-39.3-40.36-40.37v4.27c19.45 1.07 35.03 16.65 36.1 36.1z" style="fill:#f68b1f"/><path d="M214 154.49h-17v67.98h17zM43.89 188.48c0 9.38-7.62 16.99-17.01 17h-8.46v-33.99h8.46c9.4 0 17.01 7.61 17.01 16.99m17.01 0c0-18.72-15.14-33.9-33.85-33.99H1.42v67.98h25.51c18.77-.02 33.97-15.23 33.97-33.99m59.48 0c0 9.34-7.58 16.92-16.92 16.92s-16.92-7.58-16.92-16.92c0-9.35 7.58-16.92 16.92-16.92s16.92 7.58 16.92 16.92m17.07 0c0-18.77-15.22-33.99-33.99-33.99s-33.99 15.22-33.99 33.99 15.22 33.99 33.99 33.99 33.99-15.21 33.99-33.99m51.06-33.99h-50.99v17h17v50.99h17v-50.99h17v-17zm59.63-48.89h-17.07c-1.08 13.1-12.04 23.39-25.42 23.39-14.1 0-25.52-11.43-25.52-25.52 0-13.38 10.3-24.33 23.4-25.42V60.99c-22.51 1.11-40.41 19.71-40.41 42.49 0 23.49 19.05 42.54 42.54 42.54 22.77 0 41.37-17.91 42.48-40.42m33.91 116.87v-67.98h-17v39.3l-22.76-39.3h-19.71v67.98h17v-38.82l22.41 38.81z" style="fill:#006839"/><g/><g/><g/><script/></svg>