<svg version="1.1" style="transform:rotate(90deg)" id="Layer_1" xmlns="http://www.w3.org/2000/svg" xmlns:xlink="http://www.w3.org/1999/xlink" x="0px" y="0px"
	 width="100%" viewBox="0 0 750 750" enable-background="new 0 0 750 750" xml:space="preserve">
<path fill="#FFFFFF" opacity="1.000000" stroke="none" 
	d="
M348.000000,751.000000 
	C232.000000,751.000000 116.500000,751.000000 1.000000,751.000000 
	C1.000000,501.000000 1.000000,251.000000 1.000000,1.000000 
	C251.000000,1.000000 501.000000,1.000000 751.000000,1.000000 
	C751.000000,251.000000 751.000000,501.000000 751.000000,751.000000 
	C616.833313,751.000000 482.666656,751.000000 348.000000,751.000000 
M386.814331,471.685883 
	C383.575348,468.650635 380.336365,465.615387 376.873291,462.370117 
	C379.094452,460.040497 380.638123,458.355133 382.251587,456.739441 
	C399.611847,439.354828 417.023193,422.020996 434.330597,404.583954 
	C440.782532,398.083679 440.597290,398.055939 433.883728,391.454254 
	C417.797302,375.636078 401.778870,359.748596 385.789673,343.832184 
	C384.996521,343.042664 384.740143,341.713928 384.097992,340.347137 
	C394.392303,336.683563 404.341309,335.913177 414.560181,335.895325 
	C430.365631,335.867767 443.711700,341.497803 454.797760,352.328888 
	C475.801147,372.849243 496.518768,393.661987 517.363708,414.344574 
	C522.116455,419.060242 522.116638,419.027863 526.953003,414.206421 
	C536.053345,405.134247 545.096375,396.002380 554.320801,387.057800 
	C558.638489,382.871124 563.322876,379.062653 566.891479,375.919281 
	C553.015137,361.569397 540.505737,348.393707 527.721558,335.490265 
	C517.918640,325.595917 508.259277,315.459106 495.521423,309.094055 
	C474.931122,298.805176 453.787750,293.077454 430.760162,300.219788 
	C406.302521,307.805695 385.996155,322.041412 367.727264,339.429993 
	C357.647308,349.024200 348.239166,359.320221 338.322388,369.091003 
	C328.711670,378.560181 318.837494,387.761993 307.827362,398.276520 
	C315.809143,405.614868 322.717834,411.779205 329.409576,418.170654 
	C336.348602,424.798309 343.124298,431.599518 349.885101,438.410461 
	C356.620148,445.195557 363.129822,452.208649 369.982422,458.870697 
	C372.643829,461.458099 372.130524,463.000031 369.746643,465.294586 
	C360.912140,473.797943 352.239471,482.469391 342.792206,491.781219 
	C353.097504,501.815186 362.939301,511.441956 372.847656,520.999756 
	C374.410065,522.506897 375.502075,522.928223 377.465210,520.489075 
	C381.020874,516.071411 385.586365,512.471680 389.687500,508.486450 
	C395.344849,502.988983 400.962616,497.450775 406.633881,491.894196 
	C399.830170,484.997070 393.540558,478.621033 386.814331,471.685883 
M278.920410,351.381317 
	C288.662415,355.707367 299.108063,355.086548 308.910614,353.387146 
	C330.146301,349.705475 348.949615,339.859192 365.420471,326.079865 
	C376.550537,316.768585 387.088531,306.721039 397.555115,296.653259 
	C408.190582,286.423004 418.452332,275.802063 428.797302,265.273193 
	C432.708160,261.292786 436.394043,257.091370 441.256226,251.828430 
	C419.842682,230.719925 398.804626,209.981567 377.111572,188.597549 
	C386.925049,179.142212 396.688812,169.734802 407.446686,159.369537 
	C396.865875,149.168945 386.908661,139.512970 376.824127,129.991837 
	C376.235779,129.436386 374.150970,129.489639 373.547119,130.072479 
	C363.510681,139.759476 353.599792,149.576538 343.052551,159.963608 
	C351.992157,168.683640 360.132019,177.050598 368.778900,184.855911 
	C372.433929,188.155228 372.422028,190.420181 369.185699,193.631302 
	C359.736877,203.006607 350.411621,212.506332 340.986298,221.905518 
	C330.641785,232.221313 320.239716,242.479431 308.864929,253.751465 
	C328.289185,272.767365 347.281464,291.360382 366.577087,310.250366 
	C365.347748,311.014099 364.729736,311.677277 364.020966,311.795380 
	C356.706512,313.013977 349.409882,314.446533 342.045807,315.238892 
	C324.980438,317.075104 309.596558,312.226959 297.106781,300.751099 
	C282.438782,287.273804 268.642548,272.838989 254.635925,258.653870 
	C245.951965,249.859238 237.579620,240.756897 229.260376,231.995895 
	C213.427429,247.859772 198.740570,262.575317 184.067398,277.277130 
	C189.627716,282.908691 194.909485,288.697998 200.650513,293.988983 
	C216.867416,308.934662 229.940338,327.443390 249.253448,338.799072 
	C258.204315,344.061981 268.475525,347.079315 278.920410,351.381317 
M331.617645,607.506470 
	C331.617645,599.808105 331.617645,592.109741 331.617645,583.566772 
	C336.963684,588.453003 341.629425,593.007141 346.599854,597.200195 
	C356.976044,605.953369 367.827301,614.171204 377.848297,623.305725 
	C382.671600,627.702393 387.396698,627.211243 392.719421,626.551147 
	C392.719421,605.648071 392.719421,585.079895 392.719421,564.293579 
	C388.525391,564.293579 384.627411,564.293579 380.465332,564.293579 
	C380.465332,578.582825 380.465332,592.591003 380.465332,607.397400 
	C378.474915,605.921631 376.847198,604.868591 375.396881,603.610901 
	C370.927094,599.734863 366.629608,595.654480 362.075043,591.883057 
	C352.418793,583.887146 342.176910,576.526672 333.110535,567.920288 
	C328.547241,563.588562 324.375488,563.782593 318.981079,564.497742 
	C318.981079,585.323669 318.981079,605.886292 318.981079,626.689453 
	C323.040009,626.689453 327.091614,626.689453 331.616882,626.689453 
	C331.616882,620.415344 331.616882,614.459656 331.617645,607.506470 
M516.766663,626.958252 
	C517.234070,625.954468 518.080200,624.959900 518.105103,623.945251 
	C518.231812,618.789062 518.225098,613.625854 518.108765,608.468567 
	C518.016785,604.390564 519.380676,602.651978 523.908081,602.784973 
	C535.383545,603.121887 546.880127,603.092957 558.359558,602.830200 
	C568.194397,602.605103 573.192505,599.145020 572.903503,588.405945 
	C572.813965,585.079285 572.918762,581.747986 572.894043,578.419128 
	C572.820129,568.447266 568.467102,564.041809 558.587769,564.025696 
	C542.108826,563.998840 525.629700,564.011658 509.150665,564.030640 
	C507.552399,564.032471 505.954315,564.195007 504.285614,564.286865 
	C504.285614,585.329224 504.285614,605.884888 504.285614,627.006714 
	C508.346527,627.006714 512.128540,627.006714 516.766663,626.958252 
M279.892365,581.550781 
	C277.588654,577.538391 275.186890,573.578186 273.014160,569.496094 
	C271.452393,566.561890 270.531769,563.299316 265.989105,563.928162 
	C261.065887,564.609741 255.879807,562.396790 252.486954,569.129944 
	C246.015610,581.972351 238.262039,594.163635 231.213150,606.721985 
	C227.616058,613.130554 224.392426,619.748657 220.613037,627.016113 
	C223.443863,627.016113 225.261780,626.877380 227.051712,627.042236 
	C232.322342,627.527710 236.491867,627.194641 238.153671,620.556763 
	C239.670563,614.497803 244.212357,612.244080 250.940323,612.831787 
	C259.702942,613.597168 268.586670,612.884399 277.409424,613.128418 
	C279.263031,613.179688 281.717865,614.136108 282.777039,615.527161 
	C284.946533,618.376282 286.285645,621.845398 288.127625,624.964172 
	C288.630127,625.815125 289.683929,626.872314 290.521515,626.905396 
	C295.243347,627.092163 299.976349,626.995544 306.046448,626.995544 
	C296.924164,611.329712 288.468109,596.808105 279.892365,581.550781 
M475.227600,599.143860 
	C474.053314,596.793335 472.971069,594.391174 471.687622,592.101868 
	C467.742249,585.064453 463.930939,577.937134 459.634033,571.117920 
	C457.626312,567.931641 456.755646,563.349060 450.872498,563.846741 
	C445.062164,564.338257 440.156219,563.594360 437.042084,570.919922 
	C432.614441,581.335388 426.188507,590.903442 420.588440,600.817871 
	C415.828705,609.244568 411.029572,617.649048 405.705933,627.016968 
	C409.315613,627.016968 411.952820,626.682007 414.471436,627.086182 
	C419.827026,627.945618 422.496643,625.400085 423.849823,620.624695 
	C424.209076,619.356934 424.563202,617.852661 425.449005,617.020020 
	C427.098846,615.468994 429.101074,613.263611 431.019958,613.198547 
	C441.827454,612.832214 452.655426,612.930115 463.471832,613.125610 
	C465.006958,613.153320 467.035919,614.195251 467.940308,615.426147 
	C470.552795,618.981873 472.707764,622.873718 475.138702,626.788757 
	C479.929565,626.788757 485.029968,626.788757 491.100555,626.788757 
	C485.740936,617.370361 480.719208,608.545715 475.227600,599.143860 
M183.684357,616.474365 
	C183.684586,614.475037 183.684067,612.475647 183.685181,610.476318 
	C183.688950,603.647400 183.689163,603.644531 190.390472,603.640503 
	C196.808472,603.636597 203.226471,603.639587 209.518616,603.639587 
	C209.518616,599.256775 209.518616,595.705811 209.518616,591.809265 
	C204.410156,591.809265 199.758621,591.809265 195.107086,591.809265 
	C183.475143,591.809265 183.659775,591.808105 183.585373,580.112488 
	C183.558884,575.948364 185.167831,575.053345 188.899979,575.103577 
	C201.393326,575.271790 213.890182,575.178284 226.385696,575.184692 
	C228.322586,575.185669 230.259460,575.184814 232.387177,575.184814 
	C232.387177,571.110291 232.387177,567.733215 232.387177,564.378723 
	C211.133667,564.378723 190.234589,564.378723 169.267410,564.378723 
	C169.267410,585.334167 169.267410,605.916443 169.267410,626.676147 
	C174.100143,626.676147 178.650314,626.676147 183.683792,626.676147 
	C183.683792,623.385010 183.683792,620.420715 183.684357,616.474365 
z"/>
<path fill="#F68224" opacity="1.000000" stroke="none" 
	d="
M387.032623,471.965454 
	C393.540558,478.621033 399.830170,484.997070 406.633881,491.894196 
	C400.962616,497.450775 395.344849,502.988983 389.687500,508.486450 
	C385.586365,512.471680 381.020874,516.071411 377.465210,520.489075 
	C375.502075,522.928223 374.410065,522.506897 372.847656,520.999756 
	C362.939301,511.441956 353.097504,501.815186 342.792206,491.781219 
	C352.239471,482.469391 360.912140,473.797943 369.746643,465.294586 
	C372.130524,463.000031 372.643829,461.458099 369.982422,458.870697 
	C363.129822,452.208649 356.620148,445.195557 349.885101,438.410461 
	C343.124298,431.599518 336.348602,424.798309 329.409576,418.170654 
	C322.717834,411.779205 315.809143,405.614868 307.827362,398.276520 
	C318.837494,387.761993 328.711670,378.560181 338.322388,369.091003 
	C348.239166,359.320221 357.647308,349.024200 367.727264,339.429993 
	C385.996155,322.041412 406.302521,307.805695 430.760162,300.219788 
	C453.787750,293.077454 474.931122,298.805176 495.521423,309.094055 
	C508.259277,315.459106 517.918640,325.595917 527.721558,335.490265 
	C540.505737,348.393707 553.015137,361.569397 566.891479,375.919281 
	C563.322876,379.062653 558.638489,382.871124 554.320801,387.057800 
	C545.096375,396.002380 536.053345,405.134247 526.953003,414.206421 
	C522.116638,419.027863 522.116455,419.060242 517.363708,414.344574 
	C496.518768,393.661987 475.801147,372.849243 454.797760,352.328888 
	C443.711700,341.497803 430.365631,335.867767 414.560181,335.895325 
	C404.341309,335.913177 394.392303,336.683563 384.097992,340.347137 
	C384.740143,341.713928 384.996521,343.042664 385.789673,343.832184 
	C401.778870,359.748596 417.797302,375.636078 433.883728,391.454254 
	C440.597290,398.055939 440.782532,398.083679 434.330597,404.583954 
	C417.023193,422.020996 399.611847,439.354828 382.251587,456.739441 
	C380.638123,458.355133 379.094452,460.040497 376.873291,462.370117 
	C380.336365,465.615387 383.575348,468.650635 387.032623,471.965454 
z"/>
<path fill="#959698" opacity="1.000000" stroke="none" 
	d="
M278.534302,351.247986 
	C268.475525,347.079315 258.204315,344.061981 249.253448,338.799072 
	C229.940338,327.443390 216.867416,308.934662 200.650513,293.988983 
	C194.909485,288.697998 189.627716,282.908691 184.067398,277.277130 
	C198.740570,262.575317 213.427429,247.859772 229.260376,231.995895 
	C237.579620,240.756897 245.951965,249.859238 254.635925,258.653870 
	C268.642548,272.838989 282.438782,287.273804 297.106781,300.751099 
	C309.596558,312.226959 324.980438,317.075104 342.045807,315.238892 
	C349.409882,314.446533 356.706512,313.013977 364.020966,311.795380 
	C364.729736,311.677277 365.347748,311.014099 366.577087,310.250366 
	C347.281464,291.360382 328.289185,272.767365 308.864929,253.751465 
	C320.239716,242.479431 330.641785,232.221313 340.986298,221.905518 
	C350.411621,212.506332 359.736877,203.006607 369.185699,193.631302 
	C372.422028,190.420181 372.433929,188.155228 368.778900,184.855911 
	C360.132019,177.050598 351.992157,168.683640 343.052551,159.963608 
	C353.599792,149.576538 363.510681,139.759476 373.547119,130.072479 
	C374.150970,129.489639 376.235779,129.436386 376.824127,129.991837 
	C386.908661,139.512970 396.865875,149.168945 407.446686,159.369537 
	C396.688812,169.734802 386.925049,179.142212 377.111572,188.597549 
	C398.804626,209.981567 419.842682,230.719925 441.256226,251.828430 
	C436.394043,257.091370 432.708160,261.292786 428.797302,265.273193 
	C418.452332,275.802063 408.190582,286.423004 397.555115,296.653259 
	C387.088531,306.721039 376.550537,316.768585 365.420471,326.079865 
	C348.949615,339.859192 330.146301,349.705475 308.910614,353.387146 
	C299.108063,355.086548 288.662415,355.707367 278.534302,351.247986 
z"/>
<path fill="#969698" opacity="1.000000" stroke="none" 
	d="
M331.617249,608.005249 
	C331.616882,614.459656 331.616882,620.415344 331.616882,626.689453 
	C327.091614,626.689453 323.040009,626.689453 318.981079,626.689453 
	C318.981079,605.886292 318.981079,585.323669 318.981079,564.497742 
	C324.375488,563.782593 328.547241,563.588562 333.110535,567.920288 
	C342.176910,576.526672 352.418793,583.887146 362.075043,591.883057 
	C366.629608,595.654480 370.927094,599.734863 375.396881,603.610901 
	C376.847198,604.868591 378.474915,605.921631 380.465332,607.397400 
	C380.465332,592.591003 380.465332,578.582825 380.465332,564.293579 
	C384.627411,564.293579 388.525391,564.293579 392.719421,564.293579 
	C392.719421,585.079895 392.719421,605.648071 392.719421,626.551147 
	C387.396698,627.211243 382.671600,627.702393 377.848297,623.305725 
	C367.827301,614.171204 356.976044,605.953369 346.599854,597.200195 
	C341.629425,593.007141 336.963684,588.453003 331.617645,583.566772 
	C331.617645,592.109741 331.617645,599.808105 331.617249,608.005249 
z"/>
<path fill="#969698" opacity="1.000000" stroke="none" 
	d="
M516.338623,626.982483 
	C512.128540,627.006714 508.346527,627.006714 504.285614,627.006714 
	C504.285614,605.884888 504.285614,585.329224 504.285614,564.286865 
	C505.954315,564.195007 507.552399,564.032471 509.150665,564.030640 
	C525.629700,564.011658 542.108826,563.998840 558.587769,564.025696 
	C568.467102,564.041809 572.820129,568.447266 572.894043,578.419128 
	C572.918762,581.747986 572.813965,585.079285 572.903503,588.405945 
	C573.192505,599.145020 568.194397,602.605103 558.359558,602.830200 
	C546.880127,603.092957 535.383545,603.121887 523.908081,602.784973 
	C519.380676,602.651978 518.016785,604.390564 518.108765,608.468567 
	C518.225098,613.625854 518.231812,618.789062 518.105103,623.945251 
	C518.080200,624.959900 517.234070,625.954468 516.338623,626.982483 
M519.202393,591.422974 
	C530.324341,591.530518 541.446716,591.721130 552.567810,591.664307 
	C554.430054,591.654785 557.695801,590.875977 557.899048,589.932617 
	C558.718872,586.126587 559.247498,581.983459 558.486450,578.249634 
	C558.192017,576.804871 554.229431,575.368103 551.860291,575.226318 
	C545.065857,574.819641 538.231628,575.074707 531.413086,575.073975 
	C516.838440,575.072388 516.836914,575.073669 518.243713,589.849487 
	C518.274170,590.169922 518.453979,590.476135 519.202393,591.422974 
z"/>
<path fill="#979899" opacity="1.000000" stroke="none" 
	d="
M279.952209,581.918579 
	C288.468109,596.808105 296.924164,611.329712 306.046448,626.995544 
	C299.976349,626.995544 295.243347,627.092163 290.521515,626.905396 
	C289.683929,626.872314 288.630127,625.815125 288.127625,624.964172 
	C286.285645,621.845398 284.946533,618.376282 282.777039,615.527161 
	C281.717865,614.136108 279.263031,613.179688 277.409424,613.128418 
	C268.586670,612.884399 259.702942,613.597168 250.940323,612.831787 
	C244.212357,612.244080 239.670563,614.497803 238.153671,620.556763 
	C236.491867,627.194641 232.322342,627.527710 227.051712,627.042236 
	C225.261780,626.877380 223.443863,627.016113 220.613037,627.016113 
	C224.392426,619.748657 227.616058,613.130554 231.213150,606.721985 
	C238.262039,594.163635 246.015610,581.972351 252.486954,569.129944 
	C255.879807,562.396790 261.065887,564.609741 265.989105,563.928162 
	C270.531769,563.299316 271.452393,566.561890 273.014160,569.496094 
	C275.186890,573.578186 277.588654,577.538391 279.952209,581.918579 
M270.856201,591.781616 
	C268.084778,586.845642 265.313385,581.909668 262.089233,576.167297 
	C257.389557,585.187378 253.145813,593.332336 248.715973,601.834473 
	C257.877533,601.834473 266.244690,601.834473 275.050659,601.834473 
	C273.652802,598.424500 272.427765,595.436035 270.856201,591.781616 
z"/>
<path fill="#979799" opacity="1.000000" stroke="none" 
	d="
M475.462524,599.432495 
	C480.719208,608.545715 485.740936,617.370361 491.100555,626.788757 
	C485.029968,626.788757 479.929565,626.788757 475.138702,626.788757 
	C472.707764,622.873718 470.552795,618.981873 467.940308,615.426147 
	C467.035919,614.195251 465.006958,613.153320 463.471832,613.125610 
	C452.655426,612.930115 441.827454,612.832214 431.019958,613.198547 
	C429.101074,613.263611 427.098846,615.468994 425.449005,617.020020 
	C424.563202,617.852661 424.209076,619.356934 423.849823,620.624695 
	C422.496643,625.400085 419.827026,627.945618 414.471436,627.086182 
	C411.952820,626.682007 409.315613,627.016968 405.705933,627.016968 
	C411.029572,617.649048 415.828705,609.244568 420.588440,600.817871 
	C426.188507,590.903442 432.614441,581.335388 437.042084,570.919922 
	C440.156219,563.594360 445.062164,564.338257 450.872498,563.846741 
	C456.755646,563.349060 457.626312,567.931641 459.634033,571.117920 
	C463.930939,577.937134 467.742249,585.064453 471.687622,592.101868 
	C472.971069,594.391174 474.053314,596.793335 475.462524,599.432495 
M436.695618,597.077515 
	C435.825592,598.521729 434.955566,599.965881 433.857269,601.788940 
	C443.144135,601.788940 451.525360,601.788940 461.191681,601.788940 
	C456.540710,592.925964 452.326263,584.894958 447.542969,575.779907 
	C443.707764,583.393188 440.416901,589.925903 436.695618,597.077515 
z"/>
<path fill="#959698" opacity="1.000000" stroke="none" 
	d="
M183.684082,616.965393 
	C183.683792,620.420715 183.683792,623.385010 183.683792,626.676147 
	C178.650314,626.676147 174.100143,626.676147 169.267410,626.676147 
	C169.267410,605.916443 169.267410,585.334167 169.267410,564.378723 
	C190.234589,564.378723 211.133667,564.378723 232.387177,564.378723 
	C232.387177,567.733215 232.387177,571.110291 232.387177,575.184814 
	C230.259460,575.184814 228.322586,575.185669 226.385696,575.184692 
	C213.890182,575.178284 201.393326,575.271790 188.899979,575.103577 
	C185.167831,575.053345 183.558884,575.948364 183.585373,580.112488 
	C183.659775,591.808105 183.475143,591.809265 195.107086,591.809265 
	C199.758621,591.809265 204.410156,591.809265 209.518616,591.809265 
	C209.518616,595.705811 209.518616,599.256775 209.518616,603.639587 
	C203.226471,603.639587 196.808472,603.636597 190.390472,603.640503 
	C183.689163,603.644531 183.688950,603.647400 183.685181,610.476318 
	C183.684067,612.475647 183.684586,614.475037 183.684082,616.965393 
z"/>
<path fill="#FAFBFB" opacity="1.000000" stroke="none" 
	d="
M518.883240,591.105957 
	C518.453979,590.476135 518.274170,590.169922 518.243713,589.849487 
	C516.836914,575.073669 516.838440,575.072388 531.413086,575.073975 
	C538.231628,575.074707 545.065857,574.819641 551.860291,575.226318 
	C554.229431,575.368103 558.192017,576.804871 558.486450,578.249634 
	C559.247498,581.983459 558.718872,586.126587 557.899048,589.932617 
	C557.695801,590.875977 554.430054,591.654785 552.567810,591.664307 
	C541.446716,591.721130 530.324341,591.530518 518.883240,591.105957 
z"/>
<path fill="#FBFCFC" opacity="1.000000" stroke="none" 
	d="
M271.029480,592.114624 
	C272.427765,595.436035 273.652802,598.424500 275.050659,601.834473 
	C266.244690,601.834473 257.877533,601.834473 248.715973,601.834473 
	C253.145813,593.332336 257.389557,585.187378 262.089233,576.167297 
	C265.313385,581.909668 268.084778,586.845642 271.029480,592.114624 
z"/>
<path fill="#FAFBFB" opacity="1.000000" stroke="none" 
	d="
M436.910828,596.768066 
	C440.416901,589.925903 443.707764,583.393188 447.542969,575.779907 
	C452.326263,584.894958 456.540710,592.925964 461.191681,601.788940 
	C451.525360,601.788940 443.144135,601.788940 433.857269,601.788940 
	C434.955566,599.965881 435.825592,598.521729 436.910828,596.768066 
z"/>
</svg>